<?xml version="1.0" encoding="utf-8"?>
<!-- Generator: Adobe Illustrator 27.0.0, SVG Export Plug-In . SVG Version: 6.00 Build 0)  -->
<svg version="1.1" id="Layer_1" xmlns="http://www.w3.org/2000/svg" xmlns:xlink="http://www.w3.org/1999/xlink" x="0px" y="0px"
	 viewBox="0 0 950 402" style="enable-background:new 0 0 950 402;" xml:space="preserve">
<style type="text/css">
	.st0{fill-rule:evenodd;clip-rule:evenodd;fill:url(#SVGID_1_);}
	.st1{fill-rule:evenodd;clip-rule:evenodd;fill:url(#SVGID_00000147916668253254841420000008797502019556767901_);}
	.st2{fill-rule:evenodd;clip-rule:evenodd;fill:url(#SVGID_00000106119715868507648500000002281843434763457168_);}
	.st3{fill-rule:evenodd;clip-rule:evenodd;fill:url(#SVGID_00000179646982205776635350000004402220611768415371_);}
	.st4{fill-rule:evenodd;clip-rule:evenodd;fill:#90A078;}
	
		.st5{opacity:0.5;fill-rule:evenodd;clip-rule:evenodd;fill:url(#SVGID_00000004523375240268713330000012398943945864642486_);enable-background:new    ;}
	
		.st6{opacity:0.75;fill-rule:evenodd;clip-rule:evenodd;fill:url(#SVGID_00000105425210845739273310000013745218499706302139_);enable-background:new    ;}
	
		.st7{opacity:0.75;fill-rule:evenodd;clip-rule:evenodd;fill:url(#SVGID_00000099650344653544879470000006219023067204213682_);enable-background:new    ;}
	
		.st8{opacity:0.75;fill-rule:evenodd;clip-rule:evenodd;fill:url(#SVGID_00000160155671283355916010000008937633948021577608_);enable-background:new    ;}
	.st9{fill:#D1D5DB;}
</style>
<g>
	
		<linearGradient id="SVGID_1_" gradientUnits="userSpaceOnUse" x1="71.7623" y1="175.5269" x2="355.1788" y2="175.5269" gradientTransform="matrix(1 0 0 -1 0 404)">
		<stop  offset="0" style="stop-color:#90A078"/>
		<stop  offset="0.21" style="stop-color:#8B9A73"/>
		<stop  offset="0.46" style="stop-color:#7C8C64"/>
		<stop  offset="0.73" style="stop-color:#65744D"/>
		<stop  offset="1" style="stop-color:#46552F"/>
	</linearGradient>
	<path class="st0" d="M355.2,197.5c-1.5,1.5-3.1,3.1-4.7,4.6c-0.2,0.2-0.5,0.5-0.8,0.7c-4,3.8-8.1,7.4-12.4,11
		c-14,11.7-29.2,22-45.4,30.7c-37.7,20.2-80.8,31.7-126.5,31.7c-1.9,0-3.7,0-5.7,0c-5.4-0.2-10.9-0.4-16.2-0.8
		c-11.9-0.9-23.6-2.7-35.1-5.2c-5.8-1.2-11.6-2.7-17.4-4.4c-6.6-1.8-13-4-19.4-6.4c4.9-4.9,10-9.6,15.4-14.2
		c0.2-0.1,0.2-0.2,0.4-0.3c6.4-5.5,13.2-10.8,20.2-15.6c3.2-2.2,6.4-4.4,9.7-6.5c3.9-2.4,7.8-4.8,11.9-7.1
		c7.3-4.1,14.7-7.9,22.3-11.3c2.1-0.9,4.2-1.8,6.3-2.8c31.9-13.4,66.9-20.8,103.7-20.8c4.5,0,9,0.1,13.5,0.3
		c3.9,0.2,7.8,0.5,11.6,0.8c8.1,0.8,16.1,1.8,24.1,3.4c2.9,0.5,5.8,1.1,8.6,1.8c5.7,1.2,11.4,2.7,17,4.4c6.4,1.8,12.6,3.9,18.8,6.2
		V197.5z"/>
	
		<linearGradient id="SVGID_00000121254717197070709210000006722118803806263446_" gradientUnits="userSpaceOnUse" x1="87.2226" y1="185.7829" x2="336.5036" y2="185.7829" gradientTransform="matrix(1 0 0 -1 0 404)">
		<stop  offset="0" style="stop-color:#FFFFFF;stop-opacity:0.5"/>
		<stop  offset="0.15" style="stop-color:#FFFFFF;stop-opacity:0.48"/>
		<stop  offset="0.34" style="stop-color:#FFFFFF;stop-opacity:0.42"/>
		<stop  offset="0.54" style="stop-color:#FFFFFF;stop-opacity:0.33"/>
		<stop  offset="0.75" style="stop-color:#FFFFFF;stop-opacity:0.2"/>
		<stop  offset="0.97" style="stop-color:#FFFFFF;stop-opacity:3.000000e-02"/>
		<stop  offset="1" style="stop-color:#FFFFFF;stop-opacity:0"/>
	</linearGradient>
	<path style="fill-rule:evenodd;clip-rule:evenodd;fill:url(#SVGID_00000121254717197070709210000006722118803806263446_);" d="
		M336.5,191.3c-0.8,0.7-1.6,1.4-2.4,2.1c-14,11.7-29.2,22-45.4,30.7c-37.7,20.2-80.8,31.7-126.5,31.7c-1.9,0-3.8,0-5.7,0
		c-5.4-0.1-10.9-0.4-16.2-0.8c-11.9-0.9-23.6-2.7-35.1-5.2c-5.9-1.2-11.6-2.7-17.4-4.4c-0.2,0-0.4-0.1-0.6-0.2
		c0.2-0.1,0.2-0.2,0.4-0.3c6.4-5.5,13.2-10.8,20.2-15.6c3.2-2.2,6.4-4.4,9.7-6.5c3.9-2.4,7.8-4.8,11.9-7.1
		c7.3-4.1,14.7-7.9,22.3-11.3c2.1-0.9,4.2-1.8,6.3-2.8c31.9-13.4,66.9-20.8,103.7-20.8c4.5,0,9,0.1,13.5,0.3
		c3.9,0.2,7.8,0.5,11.6,0.8c8.1,0.8,16.1,1.8,24.1,3.4c2.9,0.5,5.8,1.1,8.6,1.8C325.3,188.2,330.9,189.7,336.5,191.3L336.5,191.3z"
		/>
	
		<linearGradient id="SVGID_00000012444717021167561690000007474133574735809433_" gradientUnits="userSpaceOnUse" x1="107.8115" y1="196.7277" x2="310.8641" y2="196.7277" gradientTransform="matrix(1 0 0 -1 0 404)">
		<stop  offset="0" style="stop-color:#FFFFFF;stop-opacity:0.5"/>
		<stop  offset="0.15" style="stop-color:#FFFFFF;stop-opacity:0.48"/>
		<stop  offset="0.34" style="stop-color:#FFFFFF;stop-opacity:0.42"/>
		<stop  offset="0.54" style="stop-color:#FFFFFF;stop-opacity:0.33"/>
		<stop  offset="0.75" style="stop-color:#FFFFFF;stop-opacity:0.2"/>
		<stop  offset="0.97" style="stop-color:#FFFFFF;stop-opacity:3.000000e-02"/>
		<stop  offset="1" style="stop-color:#FFFFFF;stop-opacity:0"/>
	</linearGradient>
	<path style="fill-rule:evenodd;clip-rule:evenodd;fill:url(#SVGID_00000012444717021167561690000007474133574735809433_);" d="
		M310.9,185.2c-8.7,6.1-17.8,11.7-27.3,16.8c-37.7,20.2-80.8,31.7-126.5,31.7c-1.9,0-3.8,0-5.7,0c-5.4-0.1-10.9-0.4-16.2-0.8
		c-9.3-0.8-18.4-1.9-27.3-3.6c3.2-2.2,6.4-4.4,9.7-6.5c3.9-2.4,7.8-4.8,11.9-7.1c7.3-4.1,14.7-7.9,22.3-11.3
		c2.1-0.9,4.2-1.8,6.3-2.8c31.9-13.4,66.9-20.8,103.7-20.8c4.5,0,9,0.1,13.5,0.3c3.9,0.2,7.8,0.5,11.6,0.8
		C294.9,182.7,302.9,183.8,310.9,185.2L310.9,185.2z"/>
	
		<linearGradient id="SVGID_00000133510909937812320480000012108981357223960998_" gradientUnits="userSpaceOnUse" x1="129.3183" y1="205.2614" x2="286.7548" y2="205.2614" gradientTransform="matrix(1 0 0 -1 0 404)">
		<stop  offset="0" style="stop-color:#FFFFFF;stop-opacity:0.5"/>
		<stop  offset="0.15" style="stop-color:#FFFFFF;stop-opacity:0.48"/>
		<stop  offset="0.34" style="stop-color:#FFFFFF;stop-opacity:0.42"/>
		<stop  offset="0.54" style="stop-color:#FFFFFF;stop-opacity:0.33"/>
		<stop  offset="0.75" style="stop-color:#FFFFFF;stop-opacity:0.2"/>
		<stop  offset="0.97" style="stop-color:#FFFFFF;stop-opacity:3.000000e-02"/>
		<stop  offset="1" style="stop-color:#FFFFFF;stop-opacity:0"/>
	</linearGradient>
	<path style="fill-rule:evenodd;clip-rule:evenodd;fill:url(#SVGID_00000133510909937812320480000012108981357223960998_);" d="
		M286.8,181.9c-1.9,1.1-3.8,2.1-5.7,3.2c-37.7,20.2-80.8,31.7-126.5,31.7c-1.9,0-3.8,0-5.7,0c-5.4-0.1-10.9-0.4-16.2-0.8
		c-1.1-0.1-2.1-0.2-3.3-0.3c7.3-4.1,14.7-7.9,22.3-11.3c2.1-0.9,4.2-1.8,6.3-2.8c31.9-13.4,66.9-20.8,103.7-20.8
		c4.5,0,9,0.1,13.5,0.3C278.9,181.2,282.9,181.5,286.8,181.9L286.8,181.9z"/>
	<path class="st4" d="M429.7,181.5c0,0-0.3-0.2-0.5-0.2c-2.1-0.9-4.4-1.7-6.6-2.4c0,0,0,0-0.1,0c-0.1,0-0.2,0-0.3,0
		c-5.6-1.6-11.5-2.4-17.5-2.4c-13,0-25.1,3.9-35.1,10.6c-0.3,0.2-0.6,0.5-1,0.7c-4.4,3.1-8.8,6.4-13,10c-1.7,1.5-3.4,2.9-5.1,4.4
		c-0.2,0.2-0.5,0.5-0.8,0.7c-4,3.8-8.1,7.4-12.4,11c-14,11.7-29.2,22-45.4,30.7c-37.7,20.2-80.8,31.7-126.5,31.7c-1.9,0-3.8,0-5.7,0
		c-5.4-0.2-10.9-0.4-16.2-0.8c-11.9-0.9-23.7-2.7-35.1-5.2c-5.8-1.2-11.6-2.7-17.4-4.4c-6.6-1.8-13-4-19.4-6.4
		c-6.7-2.5-13.4-5.3-19.8-8.3c-0.6-0.3-1.2-0.5-1.8-0.8c-0.9-0.3-1.9-0.5-3-0.5c-5.1,0-9.3,4.1-9.3,9.3c0,2.8,1.2,5.2,3.1,7
		c0.7,0.5,1.4,0.9,2.1,1.4c4.4,3,9,5.7,13.6,8.4c11.8,6.8,24.1,12.8,37,17.8c-16.1,19.4-39.3,32.7-65.6,36c-0.5,0-1.1,0.2-1.7,0.2
		c-4.2,0.9-7.3,4.6-7.3,9c0,3.8,2.3,7,5.6,8.5c0.3,0.2,0.6,0.2,0.9,0.3c10.8,3.9,22.5,6,34.7,6c28.5,0,54.2-11.6,72.7-30.3
		c4.7-4.7,8.9-9.9,12.6-15.4c3.6,0.6,7.2,1.1,10.8,1.6c11.3,1.5,22.8,2.2,34.6,2.2c28.1,0,55.2-4.3,80.6-12.3
		c-13.7,18.1-33.3,31.7-55.9,37.6c-0.3,0.1-0.6,0.2-1,0.2c-3.8,1.1-6.4,4.7-6.4,8.8c0,3.8,2.3,7,5.6,8.5c0.5,0.2,1.1,0.4,1.8,0.5
		c9,2.6,18.6,4.1,28.5,4.1c54.8,0,99.5-42.9,102.3-97c3.8-2.7,7.5-5.5,11.1-8.3c10.3,7.2,22.7,11.3,36.1,11.3
		c11.9,0,22.9-3.2,32.4-8.9c4.3-2.6,8.3-5.7,11.8-9.1c1.8-1.7,3.4-3.4,4.9-5.4c0.5-0.5,0.8-0.9,1.1-1.5c4.3-5.7,7-12.6,7.7-20.2
		c0.1-1.1,0.2-2.1,0.2-3.2c0-15.5-9-28.9-22.2-35.3L429.7,181.5z M409.7,187.9c5.1,0,9.3,4.1,9.3,9.3c0,5.1-4.1,9.3-9.3,9.3
		c-5.1,0-9.3-4.1-9.3-9.3C400.4,192,404.5,187.9,409.7,187.9z"/>
	
		<linearGradient id="SVGID_00000081641575366055451260000010124547967059547284_" gradientUnits="userSpaceOnUse" x1="71.8388" y1="163.465" x2="355.6378" y2="163.465" gradientTransform="matrix(1 0 0 -1 0 404)">
		<stop  offset="0" style="stop-color:#ACBB93"/>
		<stop  offset="0.23" style="stop-color:#AFBE98"/>
		<stop  offset="0.51" style="stop-color:#BBC7A6"/>
		<stop  offset="0.81" style="stop-color:#CDD6BE"/>
		<stop  offset="1" style="stop-color:#DCE2D1"/>
	</linearGradient>
	
		<path style="opacity:0.5;fill-rule:evenodd;clip-rule:evenodd;fill:url(#SVGID_00000081641575366055451260000010124547967059547284_);enable-background:new    ;" d="
		M355.6,197.6C244,343.6,71.8,259.3,71.8,259.3c6.4,2.4,12.8,4.4,19.4,6.4c5.7,1.7,11.5,3.1,17.4,4.4c11.4,2.5,23.1,4.2,35.1,5.2
		c5.4,0.5,10.8,0.8,16.2,0.8c1.9,0,3.8,0,5.7,0c45.8,0,88.9-11.5,126.5-31.7c16.2-8.6,31.4-19,45.4-30.7c4.3-3.5,8.4-7.2,12.4-11
		c0.2-0.2,0.5-0.5,0.8-0.7C352.3,200.5,353.9,199,355.6,197.6L355.6,197.6z"/>
	
		<linearGradient id="SVGID_00000083074410246240076620000016589494312930621064_" gradientUnits="userSpaceOnUse" x1="19.3344" y1="87.9097" x2="93.8815" y2="87.9097" gradientTransform="matrix(1 0 0 -1 0 404)">
		<stop  offset="0" style="stop-color:#ACBB93"/>
		<stop  offset="0.23" style="stop-color:#AFBE98"/>
		<stop  offset="0.51" style="stop-color:#BBC7A6"/>
		<stop  offset="0.81" style="stop-color:#CDD6BE"/>
		<stop  offset="1" style="stop-color:#DCE2D1"/>
	</linearGradient>
	
		<path style="opacity:0.75;fill-rule:evenodd;clip-rule:evenodd;fill:url(#SVGID_00000083074410246240076620000016589494312930621064_);enable-background:new    ;" d="
		M93.9,293.5c-8.2,48.4-74.5,45.2-74.5,45.2c0-4.4,3.1-8.1,7.3-9c0.5,0,1.1-0.2,1.7-0.2C54.5,326.1,77.7,312.7,93.9,293.5z"/>
	
		<linearGradient id="SVGID_00000152944405932883182940000017322717778503489972_" gradientUnits="userSpaceOnUse" x1="208.381" y1="81.4245" x2="271.7534" y2="81.4245" gradientTransform="matrix(1 0 0 -1 0 404)">
		<stop  offset="0" style="stop-color:#ACBB93"/>
		<stop  offset="0.23" style="stop-color:#AFBE98"/>
		<stop  offset="0.51" style="stop-color:#BBC7A6"/>
		<stop  offset="0.81" style="stop-color:#CDD6BE"/>
		<stop  offset="1" style="stop-color:#DCE2D1"/>
	</linearGradient>
	
		<path style="opacity:0.75;fill-rule:evenodd;clip-rule:evenodd;fill:url(#SVGID_00000152944405932883182940000017322717778503489972_);enable-background:new    ;" d="
		M271.8,299.3c-0.8,38.5-63.4,46.6-63.4,46.6c0-4.1,2.7-7.7,6.4-8.8c0.4,0,0.7-0.2,1-0.2C238.5,331,258.1,317.4,271.8,299.3z"/>
	
		<linearGradient id="SVGID_00000083059274247804676190000001404498353668655543_" gradientUnits="userSpaceOnUse" x1="357.7813" y1="155.1297" x2="448.86" y2="155.1297" gradientTransform="matrix(1 0 0 -1 0 404)">
		<stop  offset="0" style="stop-color:#ACBB93"/>
		<stop  offset="0.23" style="stop-color:#AFBE98"/>
		<stop  offset="0.51" style="stop-color:#BBC7A6"/>
		<stop  offset="0.81" style="stop-color:#CDD6BE"/>
		<stop  offset="1" style="stop-color:#DCE2D1"/>
	</linearGradient>
	
		<path style="opacity:0.75;fill-rule:evenodd;clip-rule:evenodd;fill:url(#SVGID_00000083059274247804676190000001404498353668655543_);enable-background:new    ;" d="
		M448.9,232.8c-2.8,5.1-9.9,16.4-24,24.3c-2.7,1.5-14.5,7.9-30.9,7.9c-9.2,0-16.2-2-19.5-3.1c-6-1.9-11.6-4.7-16.6-8.3
		c7.6,2.6,26.6,7.9,49.7,2.2C429.3,250.6,443.1,238.5,448.9,232.8L448.9,232.8z"/>
</g>
<g>
	<g>
		<path class="st9" d="M542.5,309.2c-2.4,0-4.3-0.7-5.6-2.1c-1.3-1.4-2-3.4-2-6v-92.8c0-2.7,0.7-4.7,2-6.1c1.4-1.4,3.2-2.1,5.7-2.1
			h34.8c11.1,0,19.6,2.9,25.6,8.7c6,5.8,9,13.9,9,24.3c0,10.5-3,18.7-9,24.4c-6,5.8-14.6,8.7-25.6,8.7H550v34.9c0,2.6-0.6,4.5-1.9,6
			C546.9,308.5,545,309.2,542.5,309.2z M550,253.5h25.2c7.3,0,12.8-1.7,16.5-5.1c3.7-3.4,5.6-8.5,5.6-15.2c0-6.6-1.9-11.7-5.6-15.1
			c-3.7-3.4-9.2-5.1-16.5-5.1H550V253.5z"/>
		<path class="st9" d="M638.4,216.7c-2.9,0-5.2-0.8-6.8-2.3s-2.4-3.7-2.4-6.4c0-2.9,0.8-5,2.4-6.5c1.6-1.5,3.9-2.2,6.8-2.2
			s5.2,0.7,6.8,2.2c1.6,1.5,2.4,3.7,2.4,6.5c0,2.8-0.8,4.9-2.4,6.4S641.3,216.7,638.4,216.7z M638.4,309.1c-2.3,0-4.1-0.7-5.4-2.2
			c-1.3-1.5-1.9-3.5-1.9-6.2v-59.7c0-2.7,0.6-4.7,1.9-6.1c1.3-1.4,3.1-2.1,5.4-2.1c2.3,0,4.1,0.7,5.5,2.1c1.3,1.4,2,3.5,2,6.1v59.7
			c0,2.7-0.6,4.7-1.9,6.2C642.6,308.3,640.8,309.1,638.4,309.1z"/>
		<path class="st9" d="M702.1,309.5c-7.3,0-13.6-1.6-18.8-4.8c-5.3-3.2-9.4-7.8-12.3-13.6c-2.9-5.9-4.4-12.8-4.4-20.8
			c0-5.9,0.8-11.3,2.5-16c1.6-4.7,4-8.8,7.1-12c3.1-3.3,6.8-5.8,11.2-7.6c4.4-1.8,9.3-2.7,14.8-2.7c3.4,0,7,0.5,10.7,1.6
			c3.7,1.1,7.2,2.8,10.4,5.3c1.3,0.8,2.1,1.8,2.4,3c0.3,1.2,0.4,2.4,0.1,3.6c-0.2,1.2-0.8,2.3-1.6,3.1c-0.8,0.9-1.8,1.4-3,1.5
			s-2.4-0.2-3.8-1c-2.3-1.7-4.7-3-7.1-3.8c-2.4-0.8-4.8-1.1-7-1.1c-3.5,0-6.6,0.6-9.2,1.8c-2.7,1.2-4.9,2.9-6.8,5.1
			c-1.8,2.2-3.2,4.9-4.1,8.2c-0.9,3.3-1.4,7-1.4,11.2c0,8.4,1.9,14.9,5.6,19.7c3.7,4.7,9,7.1,15.9,7.1c2.2,0,4.6-0.4,7-1.1
			c2.4-0.7,4.8-1.9,7.1-3.7c1.4-0.8,2.6-1.1,3.8-0.9c1.2,0.2,2.1,0.7,2.8,1.6c0.7,0.9,1.2,1.9,1.5,3.1c0.2,1.2,0.2,2.4-0.2,3.6
			c-0.4,1.2-1.2,2.2-2.5,3.1c-3.1,2.4-6.5,4-10.1,5.1C709,309,705.5,309.5,702.1,309.5z"/>
		<path class="st9" d="M750.4,309.2c-2.3,0-4.1-0.7-5.4-2.1c-1.3-1.4-1.9-3.3-1.9-5.7v-94.5c0-2.6,0.6-4.5,1.9-5.8
			c1.3-1.3,3.1-2,5.4-2c2.3,0,4.1,0.7,5.5,2c1.3,1.3,2,3.3,2,5.8V266h0.3l27.2-28.5c1.6-1.6,3-2.9,4.2-3.8c1.3-0.9,2.9-1.4,4.9-1.4
			c2,0,3.6,0.6,4.7,1.7c1.1,1.1,1.6,2.5,1.6,4.1c0,1.6-0.7,3.2-2.2,4.8l-28.8,30v-7.2l31.4,32.9c1.6,1.6,2.3,3.3,2.2,4.9
			c-0.1,1.6-0.7,3-1.9,4.1s-2.6,1.6-4.4,1.6c-2.2,0-4-0.5-5.3-1.4s-2.8-2.3-4.6-4.1L758.1,274h-0.3v27.4
			C757.9,306.6,755.4,309.2,750.4,309.2z"/>
		<path class="st9" d="M847.9,309.5c-5.7,0-10.5-1.1-14.3-3.4c-3.8-2.2-6.7-5.6-8.6-10c-1.9-4.4-2.8-10-2.8-16.8v-39.2
			c0-2.7,0.6-4.6,1.9-5.9c1.3-1.3,3.1-1.9,5.4-1.9c2.3,0,4.1,0.6,5.5,1.9c1.3,1.3,2,3.2,2,5.9v39.4c0,6,1.2,10.5,3.5,13.3
			c2.3,2.9,6,4.3,11.1,4.3c5.5,0,10-2,13.5-5.9c3.4-3.9,5.2-9.1,5.2-15.5v-35.5c0-2.7,0.6-4.6,1.9-5.9c1.3-1.3,3.1-1.9,5.5-1.9
			c2.3,0,4.1,0.6,5.4,1.9c1.3,1.3,1.9,3.2,1.9,5.9v61.3c0,5.2-2.4,7.8-7.1,7.8c-2.2,0-4-0.7-5.2-2.1c-1.3-1.4-1.9-3.3-1.9-5.7v-13
			l1.9,3.4c-1.9,5.7-5,10.1-9.3,13.2C858.8,308,853.8,309.5,847.9,309.5z"/>
		<path class="st9" d="M917.1,336.8c-2.3,0-4.1-0.7-5.4-2c-1.3-1.3-1.9-3.3-1.9-5.8v-88.9c0-2.6,0.6-4.5,1.9-5.8c1.3-1.3,3-2,5.2-2
			c2.3,0,4.1,0.7,5.4,2c1.3,1.3,1.9,3.3,1.9,5.8v13.3l-1.6-3.2c1.6-5.5,4.6-9.9,9.2-13.3c4.6-3.3,9.9-5,16.2-5
			c6.3,0,11.8,1.6,16.5,4.7c4.7,3.2,8.3,7.6,10.9,13.3c2.6,5.7,3.9,12.6,3.9,20.7c0,7.9-1.3,14.7-3.9,20.6
			c-2.6,5.9-6.2,10.4-10.8,13.5c-4.7,3.1-10.2,4.7-16.6,4.7c-6.1,0-11.5-1.6-16-4.9c-4.6-3.3-7.6-7.6-9.2-13h1.7V329
			c0,2.6-0.7,4.5-2,5.8C921.2,336.1,919.4,336.8,917.1,336.8z M944.3,297.6c4.1,0,7.6-1,10.6-3.1c3-2,5.3-5.1,7-9
			c1.6-4,2.5-8.9,2.5-14.7c0-8.8-1.8-15.4-5.5-19.9c-3.6-4.5-8.5-6.7-14.6-6.7c-4,0-7.5,1-10.6,3c-3.1,2-5.4,5-7.1,9
			c-1.7,4-2.5,8.9-2.5,14.7c0,8.7,1.8,15.3,5.5,19.9C933.4,295.3,938.3,297.6,944.3,297.6z"/>
		<path class="st9" d="M1052.3,308.1c-2.4,0-4.3-0.7-5.7-2.1c-1.4-1.4-2-3.4-2-6v-92.4c0-2.7,0.7-4.7,2-6.1c1.3-1.4,3.2-2.1,5.6-2.1
			c2.4,0,4.3,0.7,5.6,2.1c1.3,1.4,2,3.4,2,6.1v86.9h45.1c2.1,0,3.8,0.6,4.9,1.8c1.2,1.2,1.7,2.8,1.7,5c0,2.1-0.6,3.8-1.7,5.1
			c-1.2,1.2-2.8,1.8-4.9,1.8H1052.3z"/>
		<path class="st9" d="M1137,308.1c-2.4,0-4.3-0.7-5.7-2.1c-1.4-1.4-2-3.4-2-6v-92.4c0-2.7,0.7-4.7,2-6.1c1.3-1.4,3.2-2.1,5.6-2.1
			c2.4,0,4.3,0.7,5.6,2.1c1.3,1.4,2,3.4,2,6.1v86.9h45.1c2.1,0,3.8,0.6,4.9,1.8c1.2,1.2,1.7,2.8,1.7,5c0,2.1-0.6,3.8-1.7,5.1
			c-1.2,1.2-2.8,1.8-4.9,1.8H1137z"/>
		<path class="st9" d="M1260,309.5c-10.4,0-19.3-2.2-26.6-6.7c-7.4-4.5-13-10.9-17-19.2c-3.9-8.3-5.9-18.2-5.9-29.5
			c0-8.5,1.1-16.1,3.3-22.9c2.2-6.8,5.5-12.6,9.7-17.5c4.2-4.8,9.4-8.6,15.6-11.1c6.2-2.6,13.1-3.8,20.9-3.8
			c5.7,0,11.2,0.8,16.5,2.5c5.3,1.6,9.9,4,13.8,7c1.6,1.1,2.7,2.5,3.3,4.1c0.5,1.6,0.6,3.1,0.3,4.5c-0.3,1.4-1,2.6-2,3.6
			c-1,1-2.2,1.5-3.7,1.6c-1.5,0.1-3.1-0.5-4.9-1.7c-3.2-2.6-6.7-4.4-10.6-5.7c-3.9-1.2-8-1.8-12.2-1.8c-7.4,0-13.6,1.6-18.6,4.8
			c-5,3.2-8.9,7.9-11.5,14c-2.6,6.1-3.9,13.6-3.9,22.4c0,8.8,1.3,16.3,3.9,22.4c2.6,6.2,6.5,10.9,11.5,14.1c5,3.2,11.3,4.8,18.6,4.8
			c4.3,0,8.4-0.6,12.3-1.9c3.9-1.3,7.6-3.2,11.1-5.7c1.7-1.1,3.3-1.6,4.7-1.5c1.4,0.1,2.6,0.6,3.6,1.5c1,0.9,1.6,2.1,2,3.4
			c0.3,1.4,0.3,2.8-0.1,4.3c-0.4,1.5-1.4,2.7-2.8,3.8c-4,3.4-8.7,5.9-14.1,7.7C1271.6,308.7,1265.9,309.5,1260,309.5z"/>
	</g>
</g>
</svg>
